# xmcd
#
# Track frame offsets:
#	150
#	19572
#	33690
#	53072
#	66150
#	81412
#	100952
#	115765
#	127685
#	145152
#	157872
#	176632
#	190345
#	206017
#	219782
#	232249
#	263921
#
# Disc length: 3532 seconds
#
# Revision: 1
# Processed by: cddbd v1.5.1PL0 Copyright (c) Steve Scherf et al.
# Submitted via: audiograbber 1.83.01
#
DISCID=eb0dca11
DTITLE=Karaoke - MH019
DYEAR=1900
DGENRE=Country
TTITLE0=Twain, Shania - Whose Bed Have Your Boots Been Under
TTITLE1=Strait, George  - Ocean Front Property
TTITLE2=Twain, Shania - Any Man of Mine
TTITLE3=Parton, Dolly - 9 to 5
TTITLE4=Confederate Railroad - Trashy Women
TTITLE5=Alabama - Mountain Music
TTITLE6=Greenwood, Lee - God Bless The USA
TTITLE7=Tritt, Travis - Here's a Quarter (Call Someone Who Cares)
TTITLE8=Nelson, Willie and Waylon Jennings - Mammas Don't Let Your Babies Grow Up
TTITLE8=to be Cowboys
TTITLE9=Gatlin, Larry and The Gatlin Brothers - All The Gold In California
TTITLE10=Williams, Hank Jr. - Family Tradition
TTITLE11=Wynette, Tammy - D-I-V-O-R-C-E
TTITLE12=Forester Sisters, The - Men
TTITLE13=Tritt, Travis - T-R-O-U-B-L-E
TTITLE14=Judds, The - Girls Night Out
TTITLE15=Rogers, Kenny - Coward of the County
TTITLE16=Data Track - Data Track
EXTD=
EXTT0=
EXTT1=
EXTT2=
EXTT3=
EXTT4=
EXTT5=
EXTT6=
EXTT7=
EXTT8=
EXTT9=
EXTT10=
EXTT11=
EXTT12=
EXTT13=
EXTT14=
EXTT15=
EXTT16=
PLAYORDER=
